<?xml version="1.0" encoding="utf-8" ?>
<svg baseProfile="full" height="800" version="1.1" width="1600" xmlns="http://www.w3.org/2000/svg" xmlns:ev="http://www.w3.org/2001/xml-events" xmlns:xlink="http://www.w3.org/1999/xlink"><defs /><rect fill="#0e0e0e" height="800" width="1600" x="0" y="0" /><polyline fill="none" points="0,795 79.75,795 79.75,716.0 159.5,716.0 159.5,637.0 239.25,637.0 239.25,558.0 319.0,558.0 319.0,479.0 398.75,479.0 398.75,400.0 478.5,400.0 478.5,321.0 558.25,321.0 558.25,242.0 638.0,242.0 638.0,163.0 717.75,163.0 717.75,84.0 797.5,84.0 797.5,5.0 877.25,5.0 877.25,84.0 957.0,84.0 957.0,163.0 1036.75,163.0 1036.75,242.0 1116.5,242.0 1116.5,321.0 1196.25,321.0 1196.25,400.0 1276.0,400.0 1276.0,479.0 1355.75,479.0 1355.75,558.0 1435.5,558.0 1435.5,637.0 1515.25,637.0 1515.25,716.0 1595.0,716.0 1595.0,793.75" stroke="#ffffff" stroke-width="10" /><polyline fill="none" points="0,795 79.75,795 79.75,716.0 159.5,716.0 159.5,637.0 239.25,637.0 239.25,558.0 319.0,558.0 319.0,479.0 398.75,479.0 398.75,400.0 478.5,400.0 478.5,321.0 558.25,321.0 558.25,242.0 638.0,242.0 638.0,163.0 717.75,163.0 717.75,84.0 797.5,84.0 797.5,5.0 877.25,5.0 877.25,84.0 957.0,84.0 957.0,163.0 1036.75,163.0 1036.75,242.0 1116.5,242.0 1116.5,321.0 1196.25,321.0 1196.25,400.0 1276.0,400.0 1276.0,479.0 1355.75,479.0 1355.75,558.0 1435.5,558.0 1435.5,637.0 1515.25,637.0 1515.25,716.0 1595.0,716.0 1595.0,793.75" stroke="#0e0e0e" stroke-width="5" /><polyline fill="none" points="1591.25,795 1591.25,800 1591.25,798.75 1600,798.75" stroke="#ffffff" stroke-width="2.5" /><polyline fill="none" points="1591.25,790 1591.25,800" stroke="#ffffff" stroke-width="2.5" /></svg>
